<?xml version="1.0" encoding="iso-8859-1"?>
<!-- Generator: Adobe Illustrator 16.0.0, SVG Export Plug-In . SVG Version: 6.00 Build 0)  -->
<svg version="1.2" baseProfile="tiny" id="Capa_1" xmlns="http://www.w3.org/2000/svg" xmlns:xlink="http://www.w3.org/1999/xlink"
	 x="0px" y="0px" width="400px" height="400px" viewBox="0 0 400 400" xml:space="preserve">
<path fill="#EF8354" d="M234,312.782C234,336.02,215.568,355,192.328,355h-105.2C63.887,355,45,336.02,45,312.782v-105.2
	C45,184.344,63.887,166,87.128,166h105.2c23.24,0,41.672,18.344,41.672,41.582V312.782z"/>
<path fill="#9D6A89" d="M354,192.28c0,23.237-18.791,41.72-42.031,41.72h-105.2C183.529,234,165,215.518,165,192.28V87.08
	C165,63.842,183.529,45,206.769,45h105.2C335.209,45,354,63.842,354,87.08V192.28z"/>
</svg>
