<?xml version="1.0" encoding="iso-8859-1"?>
<!-- Generator: Adobe Illustrator 16.0.0, SVG Export Plug-In . SVG Version: 6.00 Build 0)  -->
<svg version="1.2" baseProfile="tiny" id="Capa_1" xmlns="http://www.w3.org/2000/svg" xmlns:xlink="http://www.w3.org/1999/xlink"
	 x="0px" y="0px" width="592px" height="163.471px" viewBox="0 0 592 163.471" xml:space="preserve">
<g>
	<path fill="#FFFFFF" d="M82.12,134.352c-11.461,0-22.519-2.562-28.723-5.396V26.74h26.161v34.116
		c2.562-1.079,7.146-1.888,10.249-1.888c18.877,0,31.824,12.541,31.824,34.657C121.632,120.73,108.282,134.352,82.12,134.352z
		 M84.276,78.523c-1.752,0-3.504,0.404-4.718,0.943v34.116c0.943,0.271,2.695,0.539,4.449,0.539c7.822,0,11.462-7.416,11.462-18.204
		C95.47,84.86,91.694,78.523,84.276,78.523z"/>
	<path fill="#FFFFFF" d="M161.945,134.352c-24.004,0-35.736-8.631-35.736-24.679c0-18.744,18.88-23.599,40.726-24.948v-1.887
		c0-3.91-2.966-6.339-9.574-6.339c-7.147,0-15.507,2.157-21.037,4.315l-6.204-17.261c6.743-2.562,18.34-5.394,30.477-5.394
		c21.171,0,30.883,8.091,30.883,28.048v42.748C185.812,131.789,174.218,134.352,161.945,134.352z M166.935,100.773
		c-10.52,0.404-16.452,1.888-16.452,8.225c0,4.991,4.451,7.418,10.654,7.418c2.292,0,4.719-0.136,5.798-0.54V100.773z"/>
	<path fill="#FFFFFF" d="M239.073,80.41c-2.158-1.214-5.664-1.754-8.764-1.754c-2.023,0-3.912,0.271-5.396,0.811v53.131h-26.16
		V63.554c8.629-3.102,19.553-5.394,33.308-5.394c4.854,0,9.034,0.404,11.731,0.944L239.073,80.41z"/>
	<path fill="#FFFFFF" d="M289.367,134.216c-16.99,0-32.499-12.136-32.499-38.027s15.509-37.895,32.499-37.895
		c8.631,0,14.699,1.89,19.284,4.991l-5.798,13.214c-2.699-2.023-6.609-3.101-10.79-3.101c-9.035,0-16.183,7.552-16.183,22.654
		c0,15.104,7.418,22.654,16.183,22.654c4.181,0,8.091-1.212,10.79-3.235l5.798,13.755
		C303.931,132.329,297.998,134.216,289.367,134.216z"/>
	<path fill="#FFFFFF" d="M343.166,134.216c-21.172,0-32.903-16.316-32.903-38.027c0-21.713,11.731-37.895,32.903-37.895
		c21.171,0,32.903,16.182,32.903,37.895C376.069,117.899,364.337,134.216,343.166,134.216z M343.166,72.724
		c-9.71,0-14.565,8.766-14.565,23.329s4.855,23.194,14.565,23.194c9.709,0,14.564-8.631,14.564-23.194
		S352.875,72.724,343.166,72.724z"/>
	<path fill="#FFFFFF" d="M418.271,134.216c-23.465,0-36.274-13.89-36.274-37.488c0-22.385,11.73-37.49,33.98-37.49
		c3.91,0,8.092,0.675,10.385,1.485V26.74h18.476v102.216C439.577,131.789,429.328,134.216,418.271,134.216z M426.361,74.476
		c-1.483-0.673-5.26-1.348-8.497-1.348c-11.46,0-17.529,9.574-17.529,23.329c0,14.699,6.203,23.329,17.529,23.329
		c3.237,0,7.014-0.673,8.497-1.483V74.476z"/>
	<path fill="#FFFFFF" d="M518.053,97.536l-46.794,6.339c1.618,10.653,9.438,15.911,20.094,15.911c7.28,0,15.103-1.887,20.228-4.585
		l5.258,13.755c-6.068,3.103-16.315,5.26-26.835,5.26c-24.002,0-36.68-15.642-36.68-38.027c0-22.25,12.542-37.895,33.713-37.895
		c20.093,0,31.285,13.216,31.285,33.039C518.321,93.355,518.321,95.378,518.053,97.536z M486.631,71.645
		c-9.572,0-16.316,7.012-16.585,20.632l30.477-4.179C500.522,77.174,495.127,71.645,486.631,71.645z"/>
</g>
</svg>
