<?xml version="1.0" encoding="iso-8859-1"?>
<!-- Generator: Adobe Illustrator 16.0.0, SVG Export Plug-In . SVG Version: 6.00 Build 0)  -->
<svg version="1.2" baseProfile="tiny" id="Capa_1" xmlns="http://www.w3.org/2000/svg" xmlns:xlink="http://www.w3.org/1999/xlink"
	 x="0px" y="0px" width="592px" height="304px" viewBox="0 0 592 304" xml:space="preserve">
<g>
	<g>
		<linearGradient id="SVGID_1_" gradientUnits="userSpaceOnUse" x1="247.4863" y1="226.0996" x2="372.9167" y2="8.8477">
			<stop  offset="3.695100e-04" style="stop-color:#EF8354"/>
			<stop  offset="1" style="stop-color:#9D6A89"/>
		</linearGradient>
		<path fill="url(#SVGID_1_)" d="M317.069,171.95c-13.281,0-26.094-2.968-33.282-6.251V47.26h30.313v39.531
			c2.969-1.25,8.281-2.187,11.876-2.187c21.874,0,36.875,14.53,36.875,40.158C362.852,156.166,347.383,171.95,317.069,171.95z
			 M319.568,107.262c-2.03,0-4.062,0.467-5.468,1.093v39.531c1.095,0.314,3.125,0.625,5.156,0.625
			c9.063,0,13.282-8.593,13.282-21.094C332.539,114.604,328.162,107.262,319.568,107.262z"/>
		<linearGradient id="SVGID_2_" gradientUnits="userSpaceOnUse" x1="325.4883" y1="271.1338" x2="450.9187" y2="53.8819">
			<stop  offset="3.695100e-04" style="stop-color:#EF8354"/>
			<stop  offset="1" style="stop-color:#9D6A89"/>
		</linearGradient>
		<path fill="url(#SVGID_2_)" d="M409.562,171.95c-27.812,0-41.406-10-41.406-28.595c0-21.72,21.876-27.343,47.189-28.908v-2.187
			c0-4.532-3.438-7.345-11.095-7.345c-8.281,0-17.969,2.5-24.376,5.001l-7.187-20.001c7.811-2.969,21.251-6.249,35.313-6.249
			c24.53,0,35.782,9.374,35.782,32.5v49.533C437.22,168.982,423.783,171.95,409.562,171.95z M415.346,133.043
			c-12.188,0.468-19.062,2.187-19.062,9.529c0,5.784,5.155,8.597,12.343,8.597c2.657,0,5.47-0.157,6.72-0.625V133.043z"/>
		<linearGradient id="SVGID_3_" gradientUnits="userSpaceOnUse" x1="370.751" y1="297.2666" x2="496.1814" y2="80.0147">
			<stop  offset="3.695100e-04" style="stop-color:#EF8354"/>
			<stop  offset="1" style="stop-color:#9D6A89"/>
		</linearGradient>
		<path fill="url(#SVGID_3_)" d="M498.935,109.448c-2.501-1.407-6.564-2.031-10.158-2.031c-2.343,0-4.531,0.312-6.25,0.938v61.564
			h-30.312V89.916c10.001-3.593,22.655-6.249,38.594-6.249c5.626,0,10.47,0.469,13.595,1.093L498.935,109.448z"/>
		<linearGradient id="SVGID_4_" gradientUnits="userSpaceOnUse" x1="292.0654" y1="251.8359" x2="417.4958" y2="34.5841">
			<stop  offset="3.695100e-04" style="stop-color:#EF8354"/>
			<stop  offset="1" style="stop-color:#9D6A89"/>
		</linearGradient>
		<path fill="url(#SVGID_4_)" d="M308.886,257.103c-14.753,0-28.217-10.537-28.217-33.017c0-22.48,13.464-32.9,28.217-32.9
			c7.494,0,12.762,1.64,16.744,4.333l-5.035,11.471c-2.343-1.756-5.738-2.69-9.369-2.69c-7.843,0-14.048,6.558-14.048,19.67
			c0,13.111,6.438,19.667,14.048,19.667c3.631,0,7.026-1.053,9.369-2.807l5.035,11.94
			C321.529,255.463,316.38,257.103,308.886,257.103z"/>
		<linearGradient id="SVGID_5_" gradientUnits="userSpaceOnUse" x1="327.7051" y1="272.4141" x2="453.1355" y2="55.1622">
			<stop  offset="3.695100e-04" style="stop-color:#EF8354"/>
			<stop  offset="1" style="stop-color:#9D6A89"/>
		</linearGradient>
		<path fill="url(#SVGID_5_)" d="M355.594,257.103c-18.38,0-28.567-14.166-28.567-33.017c0-18.853,10.188-32.9,28.567-32.9
			c18.384,0,28.568,14.048,28.568,32.9C384.162,242.937,373.978,257.103,355.594,257.103z M355.594,203.713
			c-8.43,0-12.643,7.609-12.643,20.256c0,12.644,4.213,20.138,12.643,20.138c8.431,0,12.647-7.494,12.647-20.138
			C368.241,211.322,364.024,203.713,355.594,203.713z"/>
		<linearGradient id="SVGID_6_" gradientUnits="userSpaceOnUse" x1="377.209" y1="300.9951" x2="502.6394" y2="83.7432">
			<stop  offset="3.695100e-04" style="stop-color:#EF8354"/>
			<stop  offset="1" style="stop-color:#9D6A89"/>
		</linearGradient>
		<path fill="url(#SVGID_6_)" d="M420.803,257.103c-20.372,0-31.494-12.06-31.494-32.55c0-19.434,10.186-32.551,29.504-32.551
			c3.395,0,7.024,0.587,9.016,1.29v-29.504h16.039v88.748C439.303,254.996,430.402,257.103,420.803,257.103z M427.828,205.233
			c-1.289-0.584-4.565-1.171-7.376-1.171c-9.951,0-15.222,8.313-15.222,20.257c0,12.761,5.386,20.253,15.222,20.253
			c2.811,0,6.087-0.583,7.376-1.286V205.233z"/>
		<linearGradient id="SVGID_7_" gradientUnits="userSpaceOnUse" x1="423.8262" y1="327.9102" x2="549.2566" y2="110.6583">
			<stop  offset="3.695100e-04" style="stop-color:#EF8354"/>
			<stop  offset="1" style="stop-color:#9D6A89"/>
		</linearGradient>
		<path fill="url(#SVGID_7_)" d="M507.438,225.256l-40.628,5.504c1.404,9.25,8.194,13.812,17.444,13.812
			c6.323,0,13.113-1.636,17.562-3.979l4.565,11.943c-5.268,2.693-14.166,4.566-23.298,4.566c-20.841,0-31.848-13.583-31.848-33.017
			c0-19.32,10.889-32.9,29.271-32.9c17.446,0,27.163,11.474,27.163,28.684C507.671,221.625,507.671,223.383,507.438,225.256z
			 M480.156,202.775c-8.312,0-14.166,6.088-14.401,17.914l26.461-3.63C492.216,207.576,487.532,202.775,480.156,202.775z"/>
	</g>
	<g>
		<path fill="#9D6A89" d="M212.673,59h-61.817C137.198,59,126,70.066,126,83.721V130H80.551C66.895,130,55,140.875,55,154.529
			v61.818C55,230.004,66.895,241,80.551,241h61.818C156.026,241,167,230.004,167,216.348V170h45.673
			C226.33,170,237,159.195,237,145.539V83.721C237,70.066,226.33,59,212.673,59z"/>
		<g>
			<g>
				<path fill="#9D6A89" d="M317.069,171.95c-13.281,0-26.094-2.968-33.282-6.251V47.26h30.313v39.531
					c2.969-1.25,8.281-2.187,11.876-2.187c21.874,0,36.875,14.53,36.875,40.158C362.852,156.166,347.383,171.95,317.069,171.95z
					 M319.568,107.262c-2.03,0-4.062,0.467-5.468,1.093v39.531c1.095,0.314,3.125,0.625,5.156,0.625
					c9.063,0,13.282-8.593,13.282-21.094C332.539,114.604,328.162,107.262,319.568,107.262z"/>
				<path fill="#9D6A89" d="M409.562,171.95c-27.812,0-41.406-10-41.406-28.595c0-21.72,21.876-27.343,47.189-28.908v-2.187
					c0-4.532-3.438-7.345-11.095-7.345c-8.281,0-17.969,2.5-24.376,5.001l-7.187-20.001c7.811-2.969,21.251-6.249,35.313-6.249
					c24.53,0,35.782,9.374,35.782,32.5v49.533C437.22,168.982,423.783,171.95,409.562,171.95z M415.346,133.043
					c-12.188,0.468-19.062,2.187-19.062,9.529c0,5.784,5.155,8.597,12.343,8.597c2.657,0,5.47-0.157,6.72-0.625V133.043z"/>
				<path fill="#9D6A89" d="M498.935,109.448c-2.501-1.407-6.564-2.031-10.158-2.031c-2.343,0-4.531,0.312-6.25,0.938v61.564
					h-30.312V89.916c10.001-3.593,22.655-6.249,38.594-6.249c5.626,0,10.47,0.469,13.595,1.093L498.935,109.448z"/>
				<path fill="#9D6A89" d="M308.886,257.103c-14.753,0-28.217-10.537-28.217-33.017c0-22.48,13.464-32.9,28.217-32.9
					c7.494,0,12.762,1.64,16.744,4.333l-5.035,11.471c-2.343-1.756-5.738-2.69-9.369-2.69c-7.843,0-14.048,6.558-14.048,19.67
					c0,13.111,6.438,19.667,14.048,19.667c3.631,0,7.026-1.053,9.369-2.807l5.035,11.94
					C321.529,255.463,316.38,257.103,308.886,257.103z"/>
				<path fill="#9D6A89" d="M355.594,257.103c-18.38,0-28.567-14.166-28.567-33.017c0-18.853,10.188-32.9,28.567-32.9
					c18.384,0,28.568,14.048,28.568,32.9C384.162,242.937,373.978,257.103,355.594,257.103z M355.594,203.713
					c-8.43,0-12.643,7.609-12.643,20.256c0,12.644,4.213,20.138,12.643,20.138c8.431,0,12.647-7.494,12.647-20.138
					C368.241,211.322,364.024,203.713,355.594,203.713z"/>
				<path fill="#9D6A89" d="M420.803,257.103c-20.372,0-31.494-12.06-31.494-32.55c0-19.434,10.186-32.551,29.504-32.551
					c3.395,0,7.024,0.587,9.016,1.29v-29.504h16.039v88.748C439.303,254.996,430.402,257.103,420.803,257.103z M427.828,205.233
					c-1.289-0.584-4.565-1.171-7.376-1.171c-9.951,0-15.222,8.313-15.222,20.257c0,12.761,5.386,20.253,15.222,20.253
					c2.811,0,6.087-0.583,7.376-1.286V205.233z"/>
				<path fill="#9D6A89" d="M507.438,225.256l-40.628,5.504c1.404,9.25,8.194,13.812,17.444,13.812
					c6.323,0,13.113-1.636,17.562-3.979l4.565,11.943c-5.268,2.693-14.166,4.566-23.298,4.566
					c-20.841,0-31.848-13.583-31.848-33.017c0-19.32,10.889-32.9,29.271-32.9c17.446,0,27.163,11.474,27.163,28.684
					C507.671,221.625,507.671,223.383,507.438,225.256z M480.156,202.775c-8.312,0-14.166,6.088-14.401,17.914l26.461-3.63
					C492.216,207.576,487.532,202.775,480.156,202.775z"/>
			</g>
			<g>
				<path fill="#9D6A89" d="M317.069,171.95c-13.281,0-26.094-2.968-33.282-6.251V47.26h30.313v39.531
					c2.969-1.25,8.281-2.187,11.876-2.187c21.874,0,36.875,14.53,36.875,40.158C362.852,156.166,347.383,171.95,317.069,171.95z
					 M319.568,107.262c-2.03,0-4.062,0.467-5.468,1.093v39.531c1.095,0.314,3.125,0.625,5.156,0.625
					c9.063,0,13.282-8.593,13.282-21.094C332.539,114.604,328.162,107.262,319.568,107.262z"/>
				<path fill="#9D6A89" d="M409.562,171.95c-27.812,0-41.406-10-41.406-28.595c0-21.72,21.876-27.343,47.189-28.908v-2.187
					c0-4.532-3.438-7.345-11.095-7.345c-8.281,0-17.969,2.5-24.376,5.001l-7.187-20.001c7.811-2.969,21.251-6.249,35.313-6.249
					c24.53,0,35.782,9.374,35.782,32.5v49.533C437.22,168.982,423.783,171.95,409.562,171.95z M415.346,133.043
					c-12.188,0.468-19.062,2.187-19.062,9.529c0,5.784,5.155,8.597,12.343,8.597c2.657,0,5.47-0.157,6.72-0.625V133.043z"/>
				<path fill="#9D6A89" d="M498.935,109.448c-2.501-1.407-6.564-2.031-10.158-2.031c-2.343,0-4.531,0.312-6.25,0.938v61.564
					h-30.312V89.916c10.001-3.593,22.655-6.249,38.594-6.249c5.626,0,10.47,0.469,13.595,1.093L498.935,109.448z"/>
				<path fill="#9D6A89" d="M308.886,257.103c-14.753,0-28.217-10.537-28.217-33.017c0-22.48,13.464-32.9,28.217-32.9
					c7.494,0,12.762,1.64,16.744,4.333l-5.035,11.471c-2.343-1.756-5.738-2.69-9.369-2.69c-7.843,0-14.048,6.558-14.048,19.67
					c0,13.111,6.438,19.667,14.048,19.667c3.631,0,7.026-1.053,9.369-2.807l5.035,11.94
					C321.529,255.463,316.38,257.103,308.886,257.103z"/>
				<path fill="#9D6A89" d="M355.594,257.103c-18.38,0-28.567-14.166-28.567-33.017c0-18.853,10.188-32.9,28.567-32.9
					c18.384,0,28.568,14.048,28.568,32.9C384.162,242.937,373.978,257.103,355.594,257.103z M355.594,203.713
					c-8.43,0-12.643,7.609-12.643,20.256c0,12.644,4.213,20.138,12.643,20.138c8.431,0,12.647-7.494,12.647-20.138
					C368.241,211.322,364.024,203.713,355.594,203.713z"/>
				<path fill="#9D6A89" d="M420.803,257.103c-20.372,0-31.494-12.06-31.494-32.55c0-19.434,10.186-32.551,29.504-32.551
					c3.395,0,7.024,0.587,9.016,1.29v-29.504h16.039v88.748C439.303,254.996,430.402,257.103,420.803,257.103z M427.828,205.233
					c-1.289-0.584-4.565-1.171-7.376-1.171c-9.951,0-15.222,8.313-15.222,20.257c0,12.761,5.386,20.253,15.222,20.253
					c2.811,0,6.087-0.583,7.376-1.286V205.233z"/>
				<path fill="#9D6A89" d="M507.438,225.256l-40.628,5.504c1.404,9.25,8.194,13.812,17.444,13.812
					c6.323,0,13.113-1.636,17.562-3.979l4.565,11.943c-5.268,2.693-14.166,4.566-23.298,4.566
					c-20.841,0-31.848-13.583-31.848-33.017c0-19.32,10.889-32.9,29.271-32.9c17.446,0,27.163,11.474,27.163,28.684
					C507.671,221.625,507.671,223.383,507.438,225.256z M480.156,202.775c-8.312,0-14.166,6.088-14.401,17.914l26.461-3.63
					C492.216,207.576,487.532,202.775,480.156,202.775z"/>
			</g>
			<g>
				<path fill="#9D6A89" d="M317.069,171.95c-13.281,0-26.094-2.968-33.282-6.251V47.26h30.313v39.531
					c2.969-1.25,8.281-2.187,11.876-2.187c21.874,0,36.875,14.53,36.875,40.158C362.852,156.166,347.383,171.95,317.069,171.95z
					 M319.568,107.262c-2.03,0-4.062,0.467-5.468,1.093v39.531c1.095,0.314,3.125,0.625,5.156,0.625
					c9.063,0,13.282-8.593,13.282-21.094C332.539,114.604,328.162,107.262,319.568,107.262z"/>
				<path fill="#9D6A89" d="M409.562,171.95c-27.812,0-41.406-10-41.406-28.595c0-21.72,21.876-27.343,47.189-28.908v-2.187
					c0-4.532-3.438-7.345-11.095-7.345c-8.281,0-17.969,2.5-24.376,5.001l-7.187-20.001c7.811-2.969,21.251-6.249,35.313-6.249
					c24.53,0,35.782,9.374,35.782,32.5v49.533C437.22,168.982,423.783,171.95,409.562,171.95z M415.346,133.043
					c-12.188,0.468-19.062,2.187-19.062,9.529c0,5.784,5.155,8.597,12.343,8.597c2.657,0,5.47-0.157,6.72-0.625V133.043z"/>
				<path fill="#9D6A89" d="M498.935,109.448c-2.501-1.407-6.564-2.031-10.158-2.031c-2.343,0-4.531,0.312-6.25,0.938v61.564
					h-30.312V89.916c10.001-3.593,22.655-6.249,38.594-6.249c5.626,0,10.47,0.469,13.595,1.093L498.935,109.448z"/>
				<path fill="#9D6A89" d="M308.886,257.103c-14.753,0-28.217-10.537-28.217-33.017c0-22.48,13.464-32.9,28.217-32.9
					c7.494,0,12.762,1.64,16.744,4.333l-5.035,11.471c-2.343-1.756-5.738-2.69-9.369-2.69c-7.843,0-14.048,6.558-14.048,19.67
					c0,13.111,6.438,19.667,14.048,19.667c3.631,0,7.026-1.053,9.369-2.807l5.035,11.94
					C321.529,255.463,316.38,257.103,308.886,257.103z"/>
				<path fill="#9D6A89" d="M355.594,257.103c-18.38,0-28.567-14.166-28.567-33.017c0-18.853,10.188-32.9,28.567-32.9
					c18.384,0,28.568,14.048,28.568,32.9C384.162,242.937,373.978,257.103,355.594,257.103z M355.594,203.713
					c-8.43,0-12.643,7.609-12.643,20.256c0,12.644,4.213,20.138,12.643,20.138c8.431,0,12.647-7.494,12.647-20.138
					C368.241,211.322,364.024,203.713,355.594,203.713z"/>
				<path fill="#9D6A89" d="M420.803,257.103c-20.372,0-31.494-12.06-31.494-32.55c0-19.434,10.186-32.551,29.504-32.551
					c3.395,0,7.024,0.587,9.016,1.29v-29.504h16.039v88.748C439.303,254.996,430.402,257.103,420.803,257.103z M427.828,205.233
					c-1.289-0.584-4.565-1.171-7.376-1.171c-9.951,0-15.222,8.313-15.222,20.257c0,12.761,5.386,20.253,15.222,20.253
					c2.811,0,6.087-0.583,7.376-1.286V205.233z"/>
				<path fill="#9D6A89" d="M507.438,225.256l-40.628,5.504c1.404,9.25,8.194,13.812,17.444,13.812
					c6.323,0,13.113-1.636,17.562-3.979l4.565,11.943c-5.268,2.693-14.166,4.566-23.298,4.566
					c-20.841,0-31.848-13.583-31.848-33.017c0-19.32,10.889-32.9,29.271-32.9c17.446,0,27.163,11.474,27.163,28.684
					C507.671,221.625,507.671,223.383,507.438,225.256z M480.156,202.775c-8.312,0-14.166,6.088-14.401,17.914l26.461-3.63
					C492.216,207.576,487.532,202.775,480.156,202.775z"/>
			</g>
		</g>
	</g>
</g>
</svg>
