<?xml version="1.0" encoding="iso-8859-1"?>
<!-- Generator: Adobe Illustrator 16.0.0, SVG Export Plug-In . SVG Version: 6.00 Build 0)  -->
<!DOCTYPE svg PUBLIC "-//W3C//DTD SVG 1.0//EN" "http://www.w3.org/TR/2001/REC-SVG-20010904/DTD/svg10.dtd">
<svg version="1.0" id="Capa_1" xmlns="http://www.w3.org/2000/svg" xmlns:xlink="http://www.w3.org/1999/xlink" x="0px" y="0px"
	 width="592px" height="304px" viewBox="0 0 592 304" enable-background="new 0 0 592 304" xml:space="preserve">
<g>
	<g>
		<rect x="270" y="60" fill="#9D6A89" width="19" height="77"/>
		<path fill="#9D6A89" d="M340,102.747c0-14.495-7.321-20.372-22.699-20.372c-8.814,0-17.374,2.057-22.271,3.916l4.438,12.538
			c4.017-1.568,10.239-3.135,15.431-3.135c4.797,0,7.102,1.765,7.102,4.604v1.371c-16,0.98-29.762,4.506-29.762,18.122
			c0,11.654,8.699,17.925,26.133,17.925c8.914,0,16.629-1.863,21.629-3.918V102.747z M322,124.295c-1,0.292-2.729,0.392-4.395,0.392
			c-4.506,0-7.646-1.762-7.646-5.388c0-4.602,3.04-5.68,12.04-5.973V124.295z"/>
		<path fill="#9D6A89" d="M370,67.878l-18,4.995V85h-5v12h5v21.321c0,12.636,4.793,19.099,16.645,19.099
			c4.31,0,8.355-0.98,11.355-2.057V119.79c-1,0.489-3.531,0.978-5,0.978c-2.547,0-5-0.781-5-3.818V97h10V85h-10V67.878z"/>
		<path fill="#9D6A89" d="M411.344,137.715c8.324,0,16.65-1.568,21.744-3.918l-5.094-14.007c-4.113,1.958-9.795,3.23-15.084,3.23
			s-9.599-1.761-11.067-5.581l31.734-4.017c0.196-1.859,0.196-3.624,0.196-5.483c0-14.691-8.229-25.563-24.486-25.563
			c-16.455,0-26.055,11.459-26.055,27.619C383.232,125.08,392.146,137.715,411.344,137.715z M408.797,95.694
			c4.212,0,6.66,3.135,6.66,8.425l-14.985,1.764C400.569,98.339,404.389,95.694,408.797,95.694z"/>
		<path fill="#9D6A89" d="M469.32,85l-6.463,27.354c-0.98,4.407-1.666,8.646-1.666,8.646h-0.195c0,0-0.686-4.238-1.664-8.646
			L452.866,85h-21.547l18.707,52h22.134l18.709-52H469.32z"/>
		<path fill="#9D6A89" d="M514.166,82.375c-8.814,0-16.942,2.057-21.839,3.916l4.655,12.538c4.017-1.568,9.98-3.135,15.172-3.135
			c4.799,0,6.846,1.765,6.846,4.604v1.371c-17,0.98-29.398,4.506-29.398,18.122c0,11.654,8.019,17.925,25.451,17.925
			c8.913,0,16.947-1.863,20.947-3.918v-31.05C536,88.252,529.543,82.375,514.166,82.375z M519,124.295
			c-2,0.292-2.365,0.392-4.03,0.392c-4.505,0-7.827-1.762-7.827-5.388c0-4.602,3.857-5.68,11.857-5.973V124.295z"/>
		<path fill="#9D6A89" d="M302.131,184.496c4.167,0,8.064,1.072,10.752,3.09l5.779-13.168c-4.57-3.092-10.617-4.975-19.219-4.975
			c-16.934,0-32.388,11.961-32.388,37.766c0,25.801,15.454,37.896,32.388,37.896c8.602,0,14.514-1.881,19.219-4.973l-5.779-13.709
			c-2.688,2.018-6.585,3.227-10.752,3.227c-8.734,0-16.127-7.527-16.127-22.578C286.004,192.023,293.127,184.496,302.131,184.496z"
			/>
		<path fill="#9D6A89" d="M350.308,169.443c-10.484,0-20.733,2.689-26.78,5.242l4.619,12.363c5.107-2.148,12.934-4.301,19.786-4.301
			c8.333,0,13.067,2.82,13.067,10.348v3.762c-21,1.211-41.937,5.109-41.937,24.865c0,14.781,10.953,23.383,32.724,23.383
			c10.887,0,21.213-2.42,27.213-5.242v-44.617C379,176.701,368.852,169.443,350.308,169.443z M361,230.592
			c-3,0.807-5.919,1.479-9.816,1.479c-9.542,0-15.183-3.898-15.183-10.752c0-10.887,10.999-12.094,24.999-12.768V230.592z"/>
		<path fill="#9D6A89" d="M387,174.686V244h19v-58.295c1-0.939,5.713-1.48,9.071-1.48c2.956,0,5.879,0.404,8.164,1.076l3.343-15.186
			c-2.42-0.404-5.947-0.672-9.71-0.672C405.176,169.443,394,171.729,387,174.686z"/>
		<path fill="#9D6A89" d="M454,149.688l-16,5.242V171h-10v14h10v36.723c0,15.186,6.293,22.844,20.27,22.844
			c4.437,0,9.73-0.941,10.73-2.014v-15.188c-1,0.539-4.074,1.076-5.955,1.076c-4.705,0-9.045-2.018-9.045-7.93V185h15v-14h-15
			V149.688z"/>
		<path fill="#9D6A89" d="M503.936,169.443c-10.481,0-20.414,2.689-26.463,5.242l4.777,12.363
			c5.107-2.148,13.381-4.301,20.235-4.301c8.331,0,13.515,2.82,13.515,10.348v3.762c-23,1.211-42.306,5.109-42.306,24.865
			c0,14.781,10.137,23.383,31.908,23.383c10.888,0,22.397-2.42,26.397-5.242v-44.617C532,176.701,522.482,169.443,503.936,169.443z
			 M516,230.592c-3,0.807-6.289,1.479-10.187,1.479c-9.54,0-14.999-3.898-14.999-10.752c0-10.887,11.186-12.094,25.186-12.768
			V230.592z"/>
		<path fill="#9D6A89" d="M212.673,59h-61.817C137.198,59,126,70.066,126,83.721V130H80.551C66.895,130,55,140.875,55,154.529
			v61.818C55,230.004,66.895,241,80.551,241h61.818C156.026,241,167,230.004,167,216.348V170h45.673
			C226.33,170,237,159.195,237,145.539V83.721C237,70.066,226.33,59,212.673,59z"/>
	</g>
</g>
</svg>
