<?xml version="1.0" encoding="iso-8859-1"?>
<!-- Generator: Adobe Illustrator 16.0.0, SVG Export Plug-In . SVG Version: 6.00 Build 0)  -->
<svg version="1.2" baseProfile="tiny" id="Capa_1" xmlns="http://www.w3.org/2000/svg" xmlns:xlink="http://www.w3.org/1999/xlink"
	 x="0px" y="0px" width="506.957px" height="240.569px" viewBox="0 0 506.957 240.569" xml:space="preserve">
<g>
	<path fill="#EF8354" d="M262,222.221c0,36.352-29.183,65.349-65.537,65.349H31.902C-4.453,287.569-34,258.572-34,222.221V57.66
		C-34,21.31-4.453-8.431,31.902-8.431h164.561C232.817-8.431,262,21.31,262,57.66V222.221z"/>
	<path fill="#EE8355" d="M266,221.676c0,36.337-29.376,65.894-65.716,65.894H35.79c-36.341,0-65.79-29.557-65.79-65.894V57.182
		C-30,20.846-0.551-8.431,35.79-8.431h164.494c36.34,0,65.716,29.276,65.716,65.612V221.676z"/>
	<path fill="#ED8255" d="M270,221.13c0,36.322-29.57,65.439-65.896,65.439H39.678C3.352,286.569-26,257.452-26,221.13V56.703
		C-26,20.382,3.352-9.431,39.678-9.431h164.427C240.43-9.431,270,20.382,270,56.703V221.13z"/>
	<path fill="#EC8256" d="M274,220.585c0,36.308-29.764,65.984-66.074,65.984H43.564C7.254,286.569-22,256.893-22,220.585V56.225
		C-22,19.918,7.254-9.431,43.564-9.431h164.361C244.236-9.431,274,19.918,274,56.225V220.585z"/>
	<path fill="#EB8257" d="M277,220.039c0,36.293-28.959,65.53-65.254,65.53H47.452c-36.296,0-65.452-29.237-65.452-65.53V55.746
		c0-36.293,29.156-66.177,65.452-66.177h164.294c36.295,0,65.254,29.884,65.254,66.177V220.039z"/>
	<path fill="#EA8157" d="M281,219.493c0,36.278-29.153,66.076-65.434,66.076H51.339C15.058,285.569-14,255.771-14,219.493V55.267
		c0-36.277,29.058-65.697,65.339-65.697h164.228c36.28,0,65.434,29.42,65.434,65.697V219.493z"/>
	<path fill="#E98158" d="M285,218.948c0,36.264-29.347,65.621-65.612,65.621H55.227C18.96,284.569-11,255.212-11,218.948V54.788
		c0-36.262,29.96-65.219,66.227-65.219h164.161c36.266,0,65.612,28.957,65.612,65.219V218.948z"/>
	<path fill="#E88158" d="M289,218.403c0,36.248-29.541,65.166-65.791,65.166H59.114C22.863,283.569-7,254.651-7,218.403V54.31
		c0-36.248,29.863-65.74,66.114-65.74h164.095c36.25,0,65.791,29.492,65.791,65.74V218.403z"/>
	<path fill="#E78159" d="M293,217.857c0,36.234-29.734,65.712-65.971,65.712H63.002C26.765,283.569-3,254.092-3,217.857V53.831
		c0-36.233,29.765-65.262,66.002-65.262h164.027c36.236,0,65.971,29.028,65.971,65.262V217.857z"/>
	<path fill="#E6805A" d="M296,217.312c0,36.219-28.929,65.257-65.15,65.257H66.89C30.667,282.569,1,253.531,1,217.312V53.352
		c0-36.218,29.667-65.782,65.89-65.782h163.96c36.222,0,65.15,29.564,65.15,65.782V217.312z"/>
	<path fill="#E5805A" d="M300,216.768c0,36.204-29.122,65.802-65.329,65.802H70.777C34.569,282.569,5,252.972,5,216.768V52.874
		C5,16.67,34.569-12.431,70.777-12.431h163.894C270.878-12.431,300,16.67,300,52.874V216.768z"/>
	<path fill="#E4805B" d="M304,216.222c0,36.189-29.316,65.348-65.509,65.348H74.664C38.471,281.569,9,252.411,9,216.222V52.395
		c0-36.188,29.471-65.825,65.664-65.825h163.827c36.192,0,65.509,29.637,65.509,65.825V216.222z"/>
	<path fill="#E37F5C" d="M308,215.677c0,36.175-29.51,65.893-65.688,65.893H78.552C42.373,281.569,13,251.852,13,215.677V51.916
		c0-36.174,29.373-65.347,65.552-65.347h163.761C278.49-13.431,308,15.742,308,51.916V215.677z"/>
	<path fill="#E27F5C" d="M312,215.132c0,36.159-29.704,65.438-65.867,65.438H82.438C46.275,280.569,17,251.291,17,215.132V51.438
		c0-36.159,29.275-65.868,65.438-65.868h163.694c36.163,0,65.867,29.709,65.867,65.868V215.132z"/>
	<path fill="#E17F5D" d="M315,214.586c0,36.146-28.897,64.983-65.046,64.983H86.326C50.178,279.569,21,250.731,21,214.586V50.959
		c0-36.145,29.178-65.39,65.326-65.39h163.628c36.148,0,65.046,29.245,65.046,65.39V214.586z"/>
	<path fill="#E07E5E" d="M319,214.041c0,36.13-29.092,65.528-65.225,65.528H90.214C54.08,279.569,25,250.171,25,214.041V50.48
		c0-36.13,29.08-65.911,65.214-65.911h163.562C289.908-15.431,319,14.351,319,50.48V214.041z"/>
	<path fill="#DF7E5E" d="M323,213.495c0,36.115-29.286,65.074-65.404,65.074H94.102C57.982,278.569,29,249.61,29,213.495V50.001
		c0-36.115,28.982-65.432,65.102-65.432h163.494c36.118,0,65.404,29.316,65.404,65.432V213.495z"/>
	<path fill="#DE7E5F" d="M327,212.95c0,36.101-29.48,65.619-65.584,65.619H97.988C61.884,278.569,33,249.051,33,212.95V49.522
		c0-36.1,28.884-64.953,64.988-64.953h163.428C297.52-15.431,327,13.423,327,49.522V212.95z"/>
	<path fill="#DD7E5F" d="M331,212.404c0,36.087-29.674,65.165-65.763,65.165H101.876C65.787,277.569,36,248.491,36,212.404V49.044
		c0-36.086,29.787-65.475,65.876-65.475h163.361c36.089,0,65.763,29.389,65.763,65.475V212.404z"/>
	<path fill="#DC7D60" d="M334,211.858c0,36.072-28.868,65.711-64.942,65.711H105.764C69.688,277.569,40,247.931,40,211.858V48.565
		c0-36.071,29.688-64.996,65.764-64.996h163.294c36.074,0,64.942,28.925,64.942,64.996V211.858z"/>
	<path fill="#DB7D61" d="M338,211.313c0,36.057-29.062,65.256-65.121,65.256H109.65c-36.06,0-65.65-29.199-65.65-65.256V48.087
		c0-36.057,29.591-65.518,65.65-65.518h163.229C308.938-17.431,338,12.03,338,48.087V211.313z"/>
	<path fill="#DA7D61" d="M342,210.769c0,36.042-29.256,64.801-65.301,64.801H113.538C77.493,275.569,48,246.811,48,210.769V47.608
		c0-36.042,29.493-65.039,65.538-65.039h163.161c36.045,0,65.301,28.997,65.301,65.039V210.769z"/>
	<path fill="#D97C62" d="M346,210.224c0,36.027-29.45,65.346-65.479,65.346H117.426c-36.03,0-65.426-29.318-65.426-65.346V47.129
		c0-36.026,29.396-65.56,65.426-65.56h163.095c36.029,0,65.479,29.533,65.479,65.56V210.224z"/>
	<path fill="#D87C63" d="M349,209.678c0,36.013-28.644,64.892-64.659,64.892H121.313C85.298,274.569,56,245.69,56,209.678V46.65
		c0-36.012,29.298-65.081,65.313-65.081h163.027C320.356-18.431,349,10.639,349,46.65V209.678z"/>
	<path fill="#D77C63" d="M353,209.133c0,35.997-28.838,65.437-64.838,65.437H125.201C89.199,274.569,60,245.13,60,209.133V46.172
		c0-35.997,29.199-65.603,65.201-65.603h162.961c36,0,64.838,29.605,64.838,65.603V209.133z"/>
	<path fill="#D67B64" d="M357,208.587c0,35.983-29.031,64.982-65.018,64.982H129.088C93.102,273.569,64,244.57,64,208.587V45.692
		c0-35.981,29.102-65.123,65.088-65.123h162.895C327.969-19.431,357,9.711,357,45.692V208.587z"/>
	<path fill="#D57B65" d="M361,208.042c0,35.969-29.226,65.527-65.196,65.527H132.976C97.004,273.569,68,244.011,68,208.042V45.215
		c0-35.968,29.004-64.646,64.976-64.646h162.828C331.774-19.431,361,9.247,361,45.215V208.042z"/>
	<path fill="#D47B65" d="M365,207.497c0,35.953-29.42,65.072-65.376,65.072H136.863C100.906,272.569,72,243.45,72,207.497V44.735
		c0-35.952,28.906-65.166,64.863-65.166h162.761C335.58-20.431,365,8.783,365,44.735V207.497z"/>
	<path fill="#D37B66" d="M368,206.951c0,35.938-28.613,64.618-64.555,64.618H140.75c-35.941,0-64.75-28.68-64.75-64.618V44.257
		c0-35.938,28.809-64.688,64.75-64.688h162.695c35.941,0,64.555,28.75,64.555,64.688V206.951z"/>
	<path fill="#D27A67" d="M372,206.406c0,35.924-28.808,65.163-64.734,65.163H144.638C108.711,271.569,80,242.33,80,206.406V43.778
		c0-35.923,28.711-65.209,64.638-65.209h162.628C343.192-21.431,372,7.855,372,43.778V206.406z"/>
	<path fill="#D17A67" d="M376,205.86c0,35.909-29.002,64.709-64.914,64.709H148.525c-35.912,0-65.525-28.8-65.525-64.709V43.3
		c0-35.908,29.613-64.73,65.525-64.73h162.561C346.998-21.431,376,7.392,376,43.3V205.86z"/>
	<path fill="#D07A68" d="M380,205.315c0,35.895-29.195,65.254-65.093,65.254H152.412C116.515,270.569,87,241.21,87,205.315V42.821
		c0-35.895,29.515-65.252,65.412-65.252h162.495C350.805-22.431,380,6.927,380,42.821V205.315z"/>
	<path fill="#CF7968" d="M384,204.771c0,35.879-29.39,64.799-65.271,64.799H156.301c-35.884,0-65.301-28.92-65.301-64.799V42.343
		c0-35.879,29.417-64.773,65.301-64.773h162.428C354.61-22.431,384,6.464,384,42.343V204.771z"/>
	<path fill="#CE7969" d="M387,204.225c0,35.865-28.584,65.345-64.451,65.345H160.188C124.319,269.569,95,240.09,95,204.225V41.864
		c0-35.865,29.319-65.295,65.188-65.295h162.361c35.867,0,64.451,29.43,64.451,65.295V204.225z"/>
	<path fill="#CD796A" d="M391,203.68c0,35.85-28.777,64.89-64.631,64.89H164.075c-35.854,0-65.075-29.04-65.075-64.89V41.386
		c0-35.851,29.222-64.816,65.075-64.816h162.294C362.223-23.431,391,5.535,391,41.386V203.68z"/>
	<path fill="#CC786A" d="M395,203.134c0,35.836-28.972,64.436-64.81,64.436H167.962c-35.839,0-64.962-28.6-64.962-64.436V40.906
		c0-35.835,29.123-65.337,64.962-65.337H330.19c35.838,0,64.81,29.502,64.81,65.337V203.134z"/>
	<path fill="#CB786B" d="M399,202.589c0,35.82-29.166,64.98-64.988,64.98H171.85c-35.824,0-64.85-29.16-64.85-64.98V40.428
		c0-35.82,29.025-64.858,64.85-64.858h162.162C369.834-24.431,399,4.607,399,40.428V202.589z"/>
	<path fill="#CA786C" d="M403,202.044c0,35.806-29.359,64.525-65.168,64.525H175.737c-35.81,0-64.737-28.72-64.737-64.525V39.949
		c0-35.806,28.928-64.38,64.737-64.38h162.095c35.809,0,65.168,28.574,65.168,64.38V202.044z"/>
	<path fill="#C9786C" d="M406,201.498c0,35.791-28.553,65.071-64.348,65.071H179.625c-35.795,0-64.625-29.28-64.625-65.071V39.47
		c0-35.79,28.83-64.9,64.625-64.9h162.027c35.795,0,64.348,29.11,64.348,64.9V201.498z"/>
	<path fill="#C8776D" d="M410,200.952c0,35.777-28.747,64.617-64.526,64.617H183.512c-35.779,0-64.512-28.84-64.512-64.617V38.991
		c0-35.775,28.732-64.422,64.512-64.422h161.962C381.253-25.431,410,3.216,410,38.991V200.952z"/>
	<path fill="#C7776E" d="M414,200.407c0,35.762-28.941,65.162-64.705,65.162H187.399c-35.765,0-64.399-29.4-64.399-65.162V38.513
		c0-35.762,28.635-64.943,64.399-64.943h161.896C385.059-26.431,414,2.751,414,38.513V200.407z"/>
	<path fill="#C6776E" d="M418,199.862c0,35.746-29.135,64.707-64.885,64.707H191.287c-35.75,0-65.287-28.961-65.287-64.707V38.034
		c0-35.746,29.537-64.465,65.287-64.465h161.828c35.75,0,64.885,28.719,64.885,64.465V199.862z"/>
	<path fill="#C6766F" d="M422,199.317c0,35.731-29.329,64.252-65.064,64.252H195.174c-35.734,0-65.174-28.521-65.174-64.252V37.556
		c0-35.732,29.439-64.986,65.174-64.986h161.762C392.671-27.431,422,1.823,422,37.556V199.317z"/>
	<path fill="#C5766F" d="M425,198.771c0,35.718-28.523,64.798-64.244,64.798H199.062c-35.72,0-65.062-29.08-65.062-64.798V37.077
		c0-35.717,29.342-64.508,65.062-64.508h161.694C396.477-27.431,425,1.36,425,37.077V198.771z"/>
	<path fill="#C47670" d="M429,198.226c0,35.703-28.717,64.344-64.423,64.344H202.949c-35.706,0-64.949-28.641-64.949-64.344V36.599
		c0-35.703,29.243-65.029,64.949-65.029h161.628C400.283-28.431,429,0.896,429,36.599V198.226z"/>
	<path fill="#C37571" d="M433,197.681c0,35.688-28.911,64.889-64.602,64.889H206.836c-35.69,0-64.836-29.201-64.836-64.889V36.12
		c0-35.688,29.146-64.551,64.836-64.551h161.562C404.089-28.431,433,0.432,433,36.12V197.681z"/>
	<path fill="#C27571" d="M437,197.136c0,35.673-29.105,64.434-64.781,64.434H210.724c-35.676,0-64.724-28.761-64.724-64.434V35.641
		c0-35.673,29.048-65.071,64.724-65.071h161.495C407.895-29.431,437-0.032,437,35.641V197.136z"/>
	<path fill="#C17572" d="M441,196.59c0,35.659-29.299,64.979-64.96,64.979H214.611c-35.662,0-64.611-29.32-64.611-64.979V35.162
		c0-35.658,28.949-64.593,64.611-64.593H376.04c35.661,0,64.96,28.935,64.96,64.593V196.59z"/>
	<path fill="#C07573" d="M444,196.045c0,35.644-28.493,64.524-64.14,64.524H218.499c-35.646,0-64.499-28.881-64.499-64.524V34.684
		c0-35.644,28.853-64.114,64.499-64.114H379.86c35.646,0,64.14,28.471,64.14,64.114V196.045z"/>
	<path fill="#BF7473" d="M448,195.499c0,35.63-28.688,64.07-64.318,64.07H222.387c-35.633,0-64.387-28.44-64.387-64.07V34.205
		c0-35.629,28.754-64.636,64.387-64.636h161.295C419.312-30.431,448-1.424,448,34.205V195.499z"/>
	<path fill="#BE7474" d="M452,194.954c0,35.614-28.881,64.615-64.498,64.615H226.273c-35.617,0-64.273-29.001-64.273-64.615V33.726
		c0-35.613,28.656-64.156,64.273-64.156h161.229C423.119-30.431,452-1.888,452,33.726V194.954z"/>
	<path fill="#BD7475" d="M456,194.408c0,35.601-29.075,64.161-64.677,64.161H230.161c-35.603,0-64.161-28.561-64.161-64.161V33.247
		c0-35.599,28.559-64.678,64.161-64.678h161.162C426.925-31.431,456-2.352,456,33.247V194.408z"/>
	<path fill="#BC7375" d="M460,193.863c0,35.585-29.27,64.706-64.856,64.706H234.049c-35.588,0-64.049-29.121-64.049-64.706V32.769
		c0-35.584,28.461-64.199,64.049-64.199h161.095C430.73-31.431,460-2.815,460,32.769V193.863z"/>
	<path fill="#BB7376" d="M463,193.318c0,35.57-28.463,64.251-64.035,64.251H237.936c-35.572,0-64.936-28.681-64.936-64.251V32.29
		c0-35.57,29.363-64.721,64.936-64.721h161.029C434.537-32.431,463-3.28,463,32.29V193.318z"/>
	<path fill="#BA7376" d="M467,192.772c0,35.556-28.657,64.797-64.215,64.797H241.823c-35.558,0-64.823-29.241-64.823-64.797V31.812
		c0-35.556,29.266-64.242,64.823-64.242h160.962C438.343-32.431,467-3.744,467,31.812V192.772z"/>
	<path fill="#B97277" d="M471,192.228c0,35.54-28.851,64.342-64.394,64.342H245.711c-35.544,0-64.711-28.802-64.711-64.342V31.333
		c0-35.541,29.167-64.764,64.711-64.764h160.896C442.149-33.431,471-4.208,471,31.333V192.228z"/>
	<path fill="#B87278" d="M475,191.682c0,35.526-29.045,63.888-64.573,63.888H249.599c-35.528,0-64.599-28.361-64.599-63.888V30.854
		c0-35.525,29.07-64.284,64.599-64.284h160.828C445.955-33.431,475-4.672,475,30.854V191.682z"/>
	<path fill="#B77278" d="M478,191.137c0,35.511-28.239,64.433-63.752,64.433H253.485c-35.514,0-64.485-28.922-64.485-64.433V30.376
		c0-35.512,28.972-63.807,64.485-63.807h160.763C449.761-33.431,478-5.136,478,30.376V191.137z"/>
	<path fill="#B67279" d="M482,190.592c0,35.496-28.433,63.978-63.932,63.978H257.373c-35.499,0-64.373-28.481-64.373-63.978V29.896
		c0-35.496,28.874-64.327,64.373-64.327h160.695C453.567-34.431,482-5.6,482,29.896V190.592z"/>
	<path fill="#B5717A" d="M486,190.046c0,35.481-28.627,64.523-64.111,64.523H261.26c-35.483,0-64.26-29.042-64.26-64.523V29.418
		c0-35.481,28.776-63.849,64.26-63.849h160.629C457.373-34.431,486-6.063,486,29.418V190.046z"/>
	<path fill="#B4717A" d="M490,189.501c0,35.467-28.82,64.068-64.29,64.068H265.147c-35.47,0-64.147-28.602-64.147-64.068V28.939
		c0-35.467,28.678-64.37,64.147-64.37H425.71c35.47,0,64.29,28.903,64.29,64.37V189.501z"/>
	<path fill="#B3717B" d="M494,188.955c0,35.452-29.015,64.614-64.47,64.614H269.035c-35.455,0-64.035-29.162-64.035-64.614V28.46
		c0-35.451,28.58-63.891,64.035-63.891H429.53c35.455,0,64.47,28.439,64.47,63.891V188.955z"/>
	<path fill="#B2707C" d="M497,188.41c0,35.438-28.209,64.159-63.648,64.159H272.923c-35.44,0-63.923-28.722-63.923-64.159V27.982
		c0-35.438,28.482-64.413,63.923-64.413h160.429C468.791-36.431,497-7.455,497,27.982V188.41z"/>
	<path fill="#B1707C" d="M501,187.864c0,35.423-28.402,63.705-63.828,63.705H276.811c-35.426,0-63.811-28.282-63.811-63.705V27.503
		c0-35.422,28.385-63.934,63.811-63.934h160.361C472.598-36.431,501-7.919,501,27.503V187.864z"/>
	<path fill="#B0707D" d="M505,187.319c0,35.408-28.597,64.25-64.007,64.25H280.697c-35.41,0-63.697-28.842-63.697-64.25V27.024
		c0-35.407,28.287-64.455,63.697-64.455h160.296c35.41,0,64.007,29.048,64.007,64.455V187.319z"/>
	<path fill="#AF6F7E" d="M509,186.774c0,35.393-28.791,63.795-64.187,63.795H284.585c-35.396,0-64.585-28.402-64.585-63.795V26.546
		c0-35.394,29.189-63.977,64.585-63.977h160.229C480.209-37.431,509-8.848,509,26.546V186.774z"/>
	<path fill="#AE6F7E" d="M513,186.229c0,35.379-28.984,64.341-64.365,64.341H288.473c-35.381,0-64.473-28.962-64.473-64.341V26.067
		c0-35.378,29.092-64.498,64.473-64.498h160.162c35.381,0,64.365,29.12,64.365,64.498V186.229z"/>
	<path fill="#AD6F7F" d="M516,185.684c0,35.363-28.179,63.886-63.545,63.886H292.359c-35.365,0-64.359-28.522-64.359-63.886V25.589
		c0-35.364,28.994-64.02,64.359-64.02h160.096c35.366,0,63.545,28.655,63.545,64.02V185.684z"/>
	<path fill="#AC6F7F" d="M520,185.138c0,35.35-28.372,64.432-63.724,64.432H296.247c-35.352,0-64.247-29.082-64.247-64.432V25.11
		c0-35.35,28.896-63.541,64.247-63.541h160.029C491.628-38.431,520-10.239,520,25.11V185.138z"/>
	<path fill="#AB6E80" d="M524,184.593c0,35.334-28.566,63.977-63.903,63.977H300.135c-35.337,0-64.135-28.643-64.135-63.977V24.631
		c0-35.334,28.798-64.062,64.135-64.062h159.962c35.337,0,63.903,28.728,63.903,64.062V184.593z"/>
	<path fill="#AA6E81" d="M528,184.048c0,35.319-28.761,63.521-64.082,63.521H304.022c-35.322,0-64.022-28.202-64.022-63.521V24.152
		c0-35.319,28.7-63.583,64.022-63.583h159.896c35.321,0,64.082,28.264,64.082,63.583V184.048z"/>
	<path fill="#A96E81" d="M532,183.502c0,35.305-28.955,64.067-64.262,64.067H307.91c-35.308,0-63.91-28.763-63.91-64.067V23.674
		c0-35.305,28.603-64.104,63.91-64.104h159.828c35.307,0,64.262,28.8,64.262,64.104V183.502z"/>
	<path fill="#A86D82" d="M535,182.957c0,35.29-28.148,63.612-63.441,63.612H311.797c-35.292,0-63.797-28.322-63.797-63.612V23.195
		c0-35.29,28.505-63.626,63.797-63.626h159.762c35.293,0,63.441,28.336,63.441,63.626V182.957z"/>
	<path fill="#A76D83" d="M539,182.411c0,35.275-28.343,64.158-63.62,64.158H315.684c-35.277,0-63.684-28.883-63.684-64.158V22.717
		c0-35.275,28.406-64.147,63.684-64.147H475.38c35.277,0,63.62,28.872,63.62,64.147V182.411z"/>
	<path fill="#A66D83" d="M543,181.866c0,35.26-28.536,63.703-63.8,63.703H319.571c-35.263,0-63.571-28.443-63.571-63.703V22.237
		c0-35.26,28.309-63.668,63.571-63.668H479.2c35.264,0,63.8,28.408,63.8,63.668V181.866z"/>
	<path fill="#A56C84" d="M547,181.32c0,35.246-28.73,64.249-63.979,64.249H323.459c-35.248,0-63.459-29.003-63.459-64.249V21.759
		c0-35.245,28.211-64.189,63.459-64.189h159.562C518.27-42.431,547-13.486,547,21.759V181.32z"/>
	<path fill="#A46C85" d="M551,180.775c0,35.23-28.925,63.794-64.158,63.794H327.347c-35.233,0-64.347-28.563-64.347-63.794V21.28
		c0-35.23,29.113-63.711,64.347-63.711h159.495C522.075-42.431,551-13.95,551,21.28V180.775z"/>
	<path fill="#A36C85" d="M554,180.229c0,35.217-28.118,63.34-63.337,63.34H331.234c-35.219,0-64.234-28.123-64.234-63.34V20.802
		c0-35.216,29.016-64.232,64.234-64.232h159.429c35.219,0,63.337,29.017,63.337,64.232V180.229z"/>
	<path fill="#A26C86" d="M558,179.685c0,35.201-28.312,63.885-63.517,63.885H335.121c-35.203,0-64.121-28.684-64.121-63.885V20.323
		c0-35.201,28.918-63.754,64.121-63.754h159.362c35.204,0,63.517,28.553,63.517,63.754V179.685z"/>
	<path fill="#A16B86" d="M562,179.14c0,35.187-28.507,63.43-63.695,63.43H339.009c-35.188,0-64.009-28.243-64.009-63.43V19.845
		c0-35.188,28.82-63.275,64.009-63.275h159.296c35.188,0,63.695,28.088,63.695,63.275V179.14z"/>
	<path fill="#A06B87" d="M566,178.594c0,35.172-28.7,63.976-63.875,63.976H342.896c-35.175,0-63.896-28.804-63.896-63.976V19.365
		c0-35.172,28.722-63.796,63.896-63.796h159.229C537.3-44.431,566-15.807,566,19.365V178.594z"/>
	<path fill="#9F6B88" d="M570,178.049c0,35.157-28.895,63.521-64.054,63.521H346.783c-35.159,0-63.783-28.363-63.783-63.521V18.888
		c0-35.157,28.624-63.318,63.783-63.318h159.163C541.105-44.431,570-16.27,570,18.888V178.049z"/>
	<path fill="#9E6A88" d="M573,177.503c0,35.143-28.088,64.066-63.233,64.066H350.671c-35.145,0-63.671-28.924-63.671-64.066V18.408
		c0-35.143,28.526-63.839,63.671-63.839h159.096c35.146,0,63.233,28.696,63.233,63.839V177.503z"/>
	<path fill="#9D6A89" d="M577,176.958c0,35.128-28.282,63.611-63.412,63.611H354.559c-35.13,0-63.559-28.483-63.559-63.611V17.93
		c0-35.128,28.429-63.36,63.559-63.36h159.029c35.13,0,63.412,28.232,63.412,63.36V176.958z"/>
</g>
</svg>
