<?xml version="1.0" encoding="iso-8859-1"?>
<!-- Generator: Adobe Illustrator 16.0.0, SVG Export Plug-In . SVG Version: 6.00 Build 0)  -->
<!DOCTYPE svg PUBLIC "-//W3C//DTD SVG 1.0//EN" "http://www.w3.org/TR/2001/REC-SVG-20010904/DTD/svg10.dtd">
<svg version="1.0" id="Capa_1" xmlns="http://www.w3.org/2000/svg" xmlns:xlink="http://www.w3.org/1999/xlink" x="0px" y="0px"
	 width="592px" height="163.471px" viewBox="0 0 592 163.471" enable-background="new 0 0 592 163.471" xml:space="preserve">
<g>
	<g>
		<rect x="49" y="40" fill="#FFFFFF" width="20" height="81"/>
		<path fill="#FFFFFF" d="M98.482,64.4c-9.264,0-18.091,2.161-23.236,4.117l4.747,13.175c4.222-1.647,10.423-3.295,15.878-3.295
			c5.043,0,7.129,1.854,7.129,4.839v1.44c-17,1.03-30.898,4.734-30.898,19.042c0,12.249,8.995,18.836,27.316,18.836
			c9.366,0,18.582-1.955,22.582-4.117V85.809C122,70.576,114.641,64.4,98.482,64.4z M103,108.453c-1,0.309-2.49,0.412-4.239,0.412
			c-4.735,0-8.226-1.853-8.226-5.662c0-4.837,4.465-5.969,12.465-6.277V108.453z"/>
		<path fill="#FFFFFF" d="M155,49.167l-19,5.248V66h-6v14h6v22.175c0,13.277,4.824,20.07,17.279,20.07
			c4.527,0,8.721-1.028,11.721-2.161v-16.365c-2,0.515-3.456,1.028-5,1.028c-2.676,0-5-0.822-5-4.014V80h10V66h-10V49.167z"/>
		<path fill="#FFFFFF" d="M195.483,64.4c-17.293,0-27.38,12.043-27.38,29.025c0,15.852,9.367,29.129,29.541,29.129
			c8.75,0,17.498-1.646,22.852-4.117l-5.354-14.719c-4.323,2.059-10.292,3.396-15.851,3.396s-10.087-1.852-11.631-5.865
			l33.349-4.222c0.206-1.955,0.206-3.808,0.206-5.764C221.216,75.825,212.569,64.4,195.483,64.4z M186.221,89.103
			c0.103-7.926,4.116-10.705,8.748-10.705c4.426,0,6.999,3.295,6.999,8.854L186.221,89.103z"/>
		<path fill="#FFFFFF" d="M258.572,66l-6.794,28.83c-1.028,4.633-1.749,9.17-1.749,9.17h-0.205c0,0-0.721-4.537-1.75-9.17
			L241.281,66h-22.645l19.66,55h23.26l19.659-55H258.572z"/>
		<path fill="#FFFFFF" d="M305.877,64.4c-9.264,0-17.892,2.161-23.038,4.117l4.846,13.175c4.222-1.647,10.577-3.295,16.032-3.295
			c5.044,0,7.283,1.854,7.283,4.839v1.44c-18,1.03-31.004,4.734-31.004,19.042c0,12.249,8.549,18.836,26.871,18.836
			c9.365,0,18.133-1.955,22.133-4.117V85.809C329,70.576,322.037,64.4,305.877,64.4z M311,108.453c-2,0.309-2.596,0.412-4.344,0.412
			c-4.735,0-8.173-1.853-8.173-5.662c0-4.837,3.517-5.969,12.517-6.277V108.453z"/>
		<path fill="#FFFFFF" d="M365.914,76.031c3.191,0,6.176,0.822,8.234,2.366l4.426-10.086c-3.499-2.367-8.131-3.809-14.719-3.809
			c-12.969,0-24.806,9.161-24.806,28.923c0,19.763,11.837,29.026,24.806,29.026c6.588,0,11.117-1.441,14.719-3.809l-4.426-10.499
			c-2.059,1.544-5.043,2.47-8.234,2.47c-6.69,0-12.352-5.764-12.352-17.291C353.562,81.795,359.019,76.031,365.914,76.031z"/>
		<path fill="#FFFFFF" d="M402.918,64.503c-8.029,0-15.931,2.059-20.562,4.015l3.511,9.47c3.911-1.647,9.892-3.295,15.14-3.295
			c6.383,0,9.994,2.161,9.994,7.927V85.5c-16,0.927-32.117,3.911-32.117,19.042c0,11.322,8.493,17.91,25.169,17.91
			c8.337,0,16.948-1.853,20.948-4.015V84.265C425,70.062,417.121,64.503,402.918,64.503z M411,111.336
			c-2,0.617-4.533,1.132-7.518,1.132c-7.308,0-11.629-2.985-11.629-8.234c0-8.338,9.146-9.264,19.146-9.778V111.336z"/>
		<path fill="#FFFFFF" d="M431,68.518V121h14V76.957c1-0.721,4.608-1.132,7.181-1.132c2.265,0,4.619,0.309,6.37,0.823l2.618-11.631
			c-1.853-0.309-4.483-0.515-7.364-0.515C444.849,64.503,436,66.253,431,68.518z"/>
		<path fill="#FFFFFF" d="M482,49.372l-13,4.015V66h-7v10h7v28.542c0,11.631,5.449,17.498,16.154,17.498
			c3.396,0,6.846-0.721,8.846-1.544v-11.631c-2,0.412-3.376,0.823-4.816,0.823c-3.603,0-7.184-1.544-7.184-6.073V76h12V66h-12
			V49.372z"/>
		<path fill="#FFFFFF" d="M520.492,64.503c-8.029,0-15.645,2.059-20.275,4.015l3.653,9.47c3.911-1.647,9.889-3.295,15.139-3.295
			c6.381,0,9.991,2.161,9.991,7.927V85.5c-17,0.927-32.044,3.911-32.044,19.042c0,11.322,7.958,17.91,24.633,17.91
			c8.338,0,17.411-1.853,20.411-4.015V84.265C542,70.062,534.694,64.503,520.492,64.503z M529,111.336
			c-1,0.617-4.459,1.132-7.443,1.132c-7.308,0-11.666-2.985-11.666-8.234c0-8.338,9.109-9.264,19.109-9.778V111.336z"/>
	</g>
</g>
</svg>
