<?xml version="1.0" encoding="iso-8859-1"?>
<!-- Generator: Adobe Illustrator 16.0.0, SVG Export Plug-In . SVG Version: 6.00 Build 0)  -->
<!DOCTYPE svg PUBLIC "-//W3C//DTD SVG 1.0//EN" "http://www.w3.org/TR/2001/REC-SVG-20010904/DTD/svg10.dtd">
<svg version="1.0" id="Capa_1" xmlns="http://www.w3.org/2000/svg" xmlns:xlink="http://www.w3.org/1999/xlink" x="0px" y="0px"
	 width="400px" height="400px" viewBox="0 0 400 400" enable-background="new 0 0 400 400" xml:space="preserve">
<linearGradient id="SVGID_1_" gradientUnits="userSpaceOnUse" x1="57.1553" y1="342.5967" x2="342.3461" y2="57.4058">
	<stop  offset="3.695101e-04" style="stop-color:#EF8354"/>
	<stop  offset="0.1278" style="stop-color:#DB7D61"/>
	<stop  offset="0.3396" style="stop-color:#C07572"/>
	<stop  offset="0.5548" style="stop-color:#AC6F7F"/>
	<stop  offset="0.7733" style="stop-color:#A16B87"/>
	<stop  offset="1" style="stop-color:#9D6A89"/>
</linearGradient>
<path fill="url(#SVGID_1_)" d="M312.744,45H207.241C183.935,45,165,63.521,165,86.825V165H87.256C63.949,165,45,184.368,45,207.673
	v105.503C45,336.48,63.949,355,87.256,355h105.503C216.066,355,234,336.48,234,313.176V235h78.744
	C336.05,235,354,215.632,354,192.327V86.825C354,63.521,336.05,45,312.744,45z"/>
<g>
	<g>
		<path fill="#9D6A89" d="M164,366.5c1.935,0,1.935-3,0-3S162.065,366.5,164,366.5L164,366.5z"/>
	</g>
</g>
</svg>
