<?xml version="1.0" encoding="iso-8859-1"?>
<!-- Generator: Adobe Illustrator 16.0.0, SVG Export Plug-In . SVG Version: 6.00 Build 0)  -->
<!DOCTYPE svg PUBLIC "-//W3C//DTD SVG 1.0//EN" "http://www.w3.org/TR/2001/REC-SVG-20010904/DTD/svg10.dtd">
<svg version="1.0" id="Capa_1" xmlns="http://www.w3.org/2000/svg" xmlns:xlink="http://www.w3.org/1999/xlink" x="0px" y="0px"
	 width="222px" height="162px" viewBox="0 0 222 162" enable-background="new 0 0 222 162" xml:space="preserve">
<g>
	<g>
		<linearGradient id="SVGID_1_" gradientUnits="userSpaceOnUse" x1="55.6577" y1="162.4941" x2="150.3505" y2="-1.5185">
			<stop  offset="3.695101e-04" style="stop-color:#EF8354"/>
			<stop  offset="1" style="stop-color:#9D6A89"/>
		</linearGradient>
		<rect x="10" y="8" fill="url(#SVGID_1_)" width="14" height="57"/>
		<linearGradient id="SVGID_2_" gradientUnits="userSpaceOnUse" x1="55.6577" y1="162.4941" x2="150.3505" y2="-1.5185">
			<stop  offset="3.695101e-04" style="stop-color:#EF8354"/>
			<stop  offset="1" style="stop-color:#9D6A89"/>
		</linearGradient>
		<path fill="url(#SVGID_2_)" d="M44.407,25.088c-6.48,0-12.726,1.512-16.326,2.88l3.286,9.217
			c2.953-1.152,7.561-2.305,11.377-2.305c3.528,0,5.255,1.297,5.255,3.385v1.008c-12,0.721-21.902,3.312-21.902,13.321
			c0,8.569,6.29,13.178,19.107,13.178c6.553,0,12.795-1.368,15.795-2.881V40.064C61,29.408,55.712,25.088,44.407,25.088z M48,55.906
			c-1,0.216-2.028,0.288-3.252,0.288c-3.312,0-5.61-1.296-5.61-3.961c0-3.384,2.863-4.176,8.863-4.392V55.906z"/>
		<linearGradient id="SVGID_3_" gradientUnits="userSpaceOnUse" x1="55.6577" y1="162.4941" x2="150.3505" y2="-1.5185">
			<stop  offset="3.695101e-04" style="stop-color:#EF8354"/>
			<stop  offset="1" style="stop-color:#9D6A89"/>
		</linearGradient>
		<path fill="url(#SVGID_3_)" d="M84,14.431l-13,3.672V26h-4v10h4v15.514c0,9.289,3.231,14.041,11.944,14.041
			c3.168,0,6.056-0.72,8.056-1.512V52.594c-1,0.36-2.42,0.72-3.5,0.72c-1.872,0-3.5-0.575-3.5-2.808V36h7V26h-7V14.431z"/>
		<linearGradient id="SVGID_4_" gradientUnits="userSpaceOnUse" x1="55.6577" y1="162.4941" x2="150.3505" y2="-1.5185">
			<stop  offset="3.695101e-04" style="stop-color:#EF8354"/>
			<stop  offset="1" style="stop-color:#9D6A89"/>
		</linearGradient>
		<path fill="url(#SVGID_4_)" d="M112.127,25.088c-12.097,0-19.154,8.425-19.154,20.306c0,11.089,6.553,20.378,20.666,20.378
			c6.12,0,12.241-1.152,15.985-2.881l-3.745-10.297c-3.024,1.44-7.201,2.376-11.089,2.376s-7.057-1.296-8.137-4.104l23.33-2.953
			c0.144-1.368,0.144-2.664,0.144-4.032C130.128,33.08,124.08,25.088,112.127,25.088z M105.646,42.369
			c0.072-5.545,2.88-7.489,6.12-7.489c3.097,0,4.896,2.305,4.896,6.193L105.646,42.369z"/>
		<linearGradient id="SVGID_5_" gradientUnits="userSpaceOnUse" x1="55.6577" y1="162.4941" x2="150.3505" y2="-1.5185">
			<stop  offset="3.695101e-04" style="stop-color:#EF8354"/>
			<stop  offset="1" style="stop-color:#9D6A89"/>
		</linearGradient>
		<path fill="url(#SVGID_5_)" d="M156.263,26l-4.752,20.377c-0.72,3.24-1.224,6.623-1.224,6.623h-0.144c0,0-0.504-3.383-1.224-6.623
			L144.166,26h-15.841l13.753,39h16.273l13.753-39H156.263z"/>
		<linearGradient id="SVGID_6_" gradientUnits="userSpaceOnUse" x1="55.6577" y1="162.4941" x2="150.3505" y2="-1.5185">
			<stop  offset="3.695101e-04" style="stop-color:#EF8354"/>
			<stop  offset="1" style="stop-color:#9D6A89"/>
		</linearGradient>
		<path fill="url(#SVGID_6_)" d="M189.59,25.088c-6.48,0-12.634,1.512-16.234,2.88l3.332,9.217c2.953-1.152,7.4-2.305,11.217-2.305
			c3.528,0,5.096,1.297,5.096,3.385v1.008c-12,0.721-21.72,3.312-21.72,13.321c0,8.569,6.199,13.178,19.016,13.178
			c6.553,0,12.704-1.368,15.704-2.881V40.064C206,29.408,200.895,25.088,189.59,25.088z M193,55.906
			c-1,0.216-1.846,0.288-3.069,0.288c-3.312,0-5.702-1.296-5.702-3.961c0-3.384,2.771-4.176,8.771-4.392V55.906z"/>
		<linearGradient id="SVGID_7_" gradientUnits="userSpaceOnUse" x1="55.6577" y1="162.4941" x2="150.3505" y2="-1.5185">
			<stop  offset="3.695101e-04" style="stop-color:#EF8354"/>
			<stop  offset="1" style="stop-color:#9D6A89"/>
		</linearGradient>
		<path fill="url(#SVGID_7_)" d="M33.35,100.164c3.063,0,5.928,0.789,7.904,2.271l4.248-9.681
			c-3.359-2.272-7.805-3.657-14.128-3.657c-12.449,0-23.811,8.794-23.811,27.764s11.362,27.861,23.811,27.861
			c6.323,0,10.67-1.383,14.128-3.655l-4.248-10.078c-1.977,1.482-4.841,2.37-7.904,2.37c-6.422,0-11.856-5.532-11.856-16.598
			C21.494,105.697,26.73,100.164,33.35,100.164z"/>
		<linearGradient id="SVGID_8_" gradientUnits="userSpaceOnUse" x1="55.6577" y1="162.4941" x2="150.3505" y2="-1.5185">
			<stop  offset="3.695101e-04" style="stop-color:#EF8354"/>
			<stop  offset="1" style="stop-color:#9D6A89"/>
		</linearGradient>
		<path fill="url(#SVGID_8_)" d="M68.836,89.098c-7.707,0-15.276,1.977-19.722,3.854l3.378,9.091
			c3.754-1.581,9.686-3.163,14.724-3.163c6.126,0,9.784,2.074,9.784,7.608v2.766c-15,0.89-31.016,3.755-31.016,18.278
			c0,10.868,8.028,17.191,24.034,17.191c8.003,0,15.982-1.778,19.982-3.854v-32.802C90,94.434,82.47,89.098,68.836,89.098z
			 M77,134.053c-2,0.592-4.538,1.087-7.403,1.087c-7.015,0-11.069-2.866-11.069-7.904c0-8.004,8.472-8.892,18.472-9.387V134.053z"/>
		<linearGradient id="SVGID_9_" gradientUnits="userSpaceOnUse" x1="55.6577" y1="162.4941" x2="150.3505" y2="-1.5185">
			<stop  offset="3.695101e-04" style="stop-color:#EF8354"/>
			<stop  offset="1" style="stop-color:#9D6A89"/>
		</linearGradient>
		<path fill="url(#SVGID_9_)" d="M96,92.951V144h14v-42.947c1-0.691,4.055-1.087,6.524-1.087c2.173,0,4.25,0.296,5.929,0.791
			l2.421-11.165c-1.779-0.296-4.261-0.494-7.027-0.494C109.252,89.098,101,90.778,96,92.951z"/>
		<linearGradient id="SVGID_10_" gradientUnits="userSpaceOnUse" x1="55.6577" y1="162.4941" x2="150.3505" y2="-1.5185">
			<stop  offset="3.695101e-04" style="stop-color:#EF8354"/>
			<stop  offset="1" style="stop-color:#9D6A89"/>
		</linearGradient>
		<path fill="url(#SVGID_10_)" d="M145,74.574l-12,3.854V90h-7v10h7v27.531c0,11.164,4.732,16.796,15.007,16.796
			c3.261,0,6.993-0.691,7.993-1.481v-11.165c-1,0.396-2.981,0.791-4.364,0.791c-3.458,0-6.636-1.482-6.636-5.83V100h11V90h-11
			V74.574z"/>
		<linearGradient id="SVGID_11_" gradientUnits="userSpaceOnUse" x1="55.6577" y1="162.4941" x2="150.3505" y2="-1.5185">
			<stop  offset="3.695101e-04" style="stop-color:#EF8354"/>
			<stop  offset="1" style="stop-color:#9D6A89"/>
		</linearGradient>
		<path fill="url(#SVGID_11_)" d="M182.04,89.098c-7.707,0-15.173,1.977-19.619,3.854l3.429,9.091
			c3.755-1.581,10.006-3.163,15.045-3.163c6.125,0,10.105,2.074,10.105,7.608v2.766c-17,0.89-31.312,3.755-31.312,18.278
			c0,10.868,7.676,17.191,23.682,17.191c8.003,0,16.886-1.778,19.63-3.854v-32.802C203,94.434,195.674,89.098,182.04,89.098z
			 M191,134.053c-2,0.592-4.833,1.087-7.698,1.087c-7.015,0-10.922-2.866-10.922-7.904c0-8.004,8.62-8.892,18.62-9.387V134.053z"/>
	</g>
</g>
</svg>
